<?xml version="1.0" standalone="no"?>
<!DOCTYPE svg PUBLIC "-//W3C//DTD SVG 20010904//EN"
 "http://www.w3.org/TR/2001/REC-SVG-20010904/DTD/svg10.dtd">
<svg version="1.0" xmlns="http://www.w3.org/2000/svg"
 width="200.000000pt" height="200.000000pt" viewBox="0 0 200.000000 200.000000"
 preserveAspectRatio="xMidYMid meet">
<metadata>
Created by potrace 1.14, written by Peter Selinger 2001-2017
</metadata>
<g transform="translate(0.000000,200.000000) scale(0.100000,-0.100000)"
fill="#000000" stroke="none">
<path d="M0 1000 l0 -1000 1000 0 1000 0 0 1000 0 1000 -1000 0 -1000 0 0
-1000z m1210 861 c41 -11 122 -44 179 -72 181 -91 350 -276 420 -459 38 -98
46 -130 32 -130 -6 0 -8 7 -5 15 4 8 1 15 -6 15 -7 0 -10 7 -6 15 3 8 2 15 -3
15 -4 0 -21 30 -37 67 -86 204 -271 380 -478 458 -112 42 -187 55 -319 56 -92
0 -146 -5 -211 -20 -205 -49 -408 -183 -511 -339 -29 -44 -39 -53 -28 -25 5
12 3 14 -7 8 -24 -15 53 90 114 154 128 134 278 216 472 256 93 20 293 12 394
-14z m159 -469 c5 -9 7 -29 4 -44 -5 -25 -4 -26 49 -24 l53 1 2 -35 c3 -49
-14 -87 -46 -99 -21 -8 -22 -10 -6 -11 18 -1 19 -1 3 -11 -12 -7 -24 -6 -38 1
-24 13 -25 17 -5 36 8 9 15 23 15 32 0 12 -4 10 -13 -7 -19 -37 -41 -47 -71
-32 -32 18 -203 9 -266 -14 -123 -43 -267 -138 -341 -224 -32 -37 -46 -47 -56
-39 -9 7 -22 7 -44 -1 -18 -6 -34 -11 -35 -11 -2 0 -10 16 -19 36 -13 31 -17
34 -35 24 -20 -11 -21 -19 -3 -67 3 -6 -5 -17 -17 -23 -18 -10 -22 -7 -36 26
-17 41 -13 64 13 64 9 0 29 12 44 26 23 22 30 24 49 14 45 -24 53 -12 51 75
-1 66 2 88 21 124 50 98 146 133 262 97 50 -16 56 -16 95 0 61 24 133 15 198
-25 32 -20 59 -30 70 -26 30 10 66 76 64 118 -1 40 20 52 38 19z m498 -299
c-3 -10 -5 -4 -5 12 0 17 2 24 5 18 2 -7 2 -21 0 -30z m0 -215 c-2 -13 -4 -5
-4 17 -1 22 1 32 4 23 2 -10 2 -28 0 -40z m-22 -115 c-18 -67 -70 -193 -79
-193 -3 0 3 19 13 43 11 23 25 66 32 95 7 28 17 52 22 52 4 0 5 9 2 20 -3 11
-2 20 3 20 5 0 7 12 4 28 -4 22 -2 25 8 15 11 -10 10 -25 -5 -80z m-395 -266
c0 -2 -10 -12 -22 -23 l-23 -19 19 23 c18 21 26 27 26 19z m-851 -61 c19 -14
41 -26 48 -26 7 0 13 -4 13 -10 0 -5 5 -10 11 -10 6 0 25 -6 42 -14 18 -7 45
-18 60 -25 31 -12 125 -29 227 -41 l65 -7 -76 -1 c-130 -3 -282 45 -393 125
-28 20 -55 41 -61 46 -17 16 28 -10 64 -37z m-157 -132 c180 -136 434 -205
650 -175 202 28 359 103 502 240 l69 66 -59 -68 c-32 -37 -84 -85 -114 -106
-68 -48 -173 -101 -199 -101 -11 0 -21 -5 -23 -11 -2 -6 -32 -13 -66 -16 -40
-4 -59 -9 -50 -14 8 -5 -24 -9 -77 -10 -150 -3 -259 2 -269 12 -6 5 -20 9 -33
9 -34 0 -153 43 -220 80 -79 44 -211 156 -252 216 -33 48 -32 48 23 -13 31
-34 84 -83 118 -109z m928 122 c-24 -23 -121 -72 -178 -91 -50 -16 -148 -23
-160 -11 -3 3 14 6 38 6 46 0 138 23 182 46 14 8 33 14 42 14 9 0 16 4 16 10
0 5 11 12 25 16 14 3 25 10 25 15 0 5 5 9 12 9 8 0 8 -4 -2 -14z"/>
<path d="M1404 1268 c-3 -4 11 -8 30 -8 20 0 36 2 36 4 0 8 -61 12 -66 4z"/>
</g>
</svg>
